<?xml version="1.0" encoding="UTF-8" standalone="no"?>
<!-- Created with Inkscape (http://www.inkscape.org/) -->

<svg
   xmlns:dc="http://purl.org/dc/elements/1.1/"
   xmlns:cc="http://creativecommons.org/ns#"
   xmlns:rdf="http://www.w3.org/1999/02/22-rdf-syntax-ns#"
   xmlns:svg="http://www.w3.org/2000/svg"
   xmlns="http://www.w3.org/2000/svg"
   xmlns:sodipodi="http://sodipodi.sourceforge.net/DTD/sodipodi-0.dtd"
   xmlns:inkscape="http://www.inkscape.org/namespaces/inkscape"
   width="32"
   height="32"
   viewBox="0 0 32 32.000001"
   id="svg4215"
   version="1.1"
   inkscape:version="0.91 r13725"
   sodipodi:docname="icon.svg">
  <defs
     id="defs4217" />
  <sodipodi:namedview
     id="base"
     pagecolor="#ffffff"
     bordercolor="#666666"
     borderopacity="1.0"
     inkscape:pageopacity="0.0"
     inkscape:pageshadow="2"
     inkscape:zoom="5.6"
     inkscape:cx="18.506429"
     inkscape:cy="18.224973"
     inkscape:document-units="px"
     inkscape:current-layer="layer1"
     showgrid="false"
     units="px"
     inkscape:window-width="1020"
     inkscape:window-height="596"
     inkscape:window-x="0"
     inkscape:window-y="0"
     inkscape:window-maximized="0" />
  <metadata
     id="metadata4220">
    <rdf:RDF>
      <cc:Work
         rdf:about="">
        <dc:format>image/svg+xml</dc:format>
        <dc:type
           rdf:resource="http://purl.org/dc/dcmitype/StillImage" />
        <dc:title></dc:title>
      </cc:Work>
    </rdf:RDF>
  </metadata>
  <g
     inkscape:label="Layer 1"
     inkscape:groupmode="layer"
     id="layer1"
     transform="translate(0,-1020.3622)">
    <path
       inkscape:connector-curvature="0"
       style="font-style:normal;font-variant:normal;font-weight:bold;font-stretch:normal;font-size:80px;line-height:125%;font-family:Ubuntu;-inkscape-font-specification:'Ubuntu Bold';letter-spacing:0px;word-spacing:0px;fill:#333333;fill-opacity:1;stroke:none;stroke-width:1px;stroke-linecap:butt;stroke-linejoin:miter;stroke-opacity:1"
       d="m 25.377225,1020.367 0,0 c -0.140703,0 -0.292239,0.023 -0.444723,0.086 -0.137308,0.034 -0.286948,0.1178 -0.434007,0.2845 -2.119929,0.4188 -3.040363,1.7088 -3.438706,2.8636 -0.0024,0 -0.004,-0.014 -0.0066,-0.017 -0.149755,-0.1797 -1.318091,-0.749 -1.318091,-0.749 l -0.119665,-0.2696 -0.988268,0.031 c -0.02661,0.091 -0.05085,0.1824 -0.07382,0.2739 -0.2173,0.1838 -0.495923,0.6422 -0.495923,1.7931 0,1.4627 0.274862,1.791 0.484611,1.8296 0.01768,0.051 0.03597,0.1012 0.05537,0.147 0.01533,0.01 0.03364,0.01 0.0512,0.014 l -1.588378,0.7424 -0.09168,0.4215 c 0,0 1.819733,-0.5643 3.83461,-1.0074 0.115123,-0.025 0.230408,-0.05 0.346491,-0.075 0.0076,0 0.01515,0 0.02261,-0.01 0.06854,0.3106 0.08606,0.3874 0.166694,0.7513 0.110444,0.4989 0.154834,0.7044 0.25183,1.1371 l 0.0036,0 c 0.05394,0.2407 0.137365,0.6195 0.168484,0.7543 0.179705,0.7788 -0.179795,2.2165 -0.179795,2.2165 l 0.658451,-0.059 0.213134,1.4908 -0.577483,0.2518 0.550693,0.5507 0.07442,0.6448 c -0.470655,-0.1587 -2.729539,-0.8391 -2.828479,-0.8984 -0.105894,-0.064 -0.529341,-0.8471 -0.635231,-0.8894 -0.07942,-0.032 -0.420012,-0.1487 -0.621541,-0.1328 -0.06717,0.01 -0.118132,0.026 -0.139311,0.068 -0.05586,0.1118 -0.08209,0.281 -0.09466,0.3876 l -6.09e-4,0 c -8.99e-4,0.01 -0.0022,0.01 -0.0031,0.017 -0.0045,0.04 -0.0067,0.065 -0.0071,0.073 -2.32e-4,0 -0.0013,0.01 -0.0013,0.01 -1.19e-4,10e-5 -0.0638,0.07 -0.09704,0.106 -0.249672,-0.1489 -0.454133,-0.2699 -0.695956,-0.4137 -0.132416,-0.1295 -0.29206,-0.251 -0.364947,-0.259 -0.01643,0 -0.05408,0 -0.08156,-0.01 -0.06806,-0.04 -0.143142,-0.085 -0.208373,-0.1244 0.04484,0 0.07815,-0.018 0.08276,-0.05 0.01497,-0.1048 0.222065,-0.7648 0.02737,-0.7947 -0.02432,0 -0.05054,0 -0.07858,0 -0.196344,0.017 -0.458416,0.1667 -0.458416,0.1667 0,0 -0.01737,0.2453 0.0036,0.4268 -0.489185,-0.2889 -0.834544,-0.4904 -0.881705,-0.5113 -0.190608,-0.084 -0.423701,-0.5721 -0.804904,-0.7627 -0.233336,-0.1166 -1.88209,-1.0395 -3.339285,-1.8575 l 0.214323,-0.353 -0.153596,-0.2852 c 0.394331,-0.9854 2.451565,-3.751 2.902897,-4.0692 0.189903,-0.1339 -0.09992,-0.4931 -0.391738,-0.5726 -0.01127,0 -0.02252,-0.01 -0.03393,-0.01 -0.122039,-0.023 -0.530438,0.3232 -1.029348,0.8204 l -0.0018,0 c -0.09964,0.099 -0.203092,0.2048 -0.308387,0.3144 l -6.1e-4,0 c -0.105318,0.1095 -0.212448,0.223 -0.320298,0.3393 -0.07036,0.075 -0.141008,0.154 -0.211344,0.2316 -0.0377,0.041 -0.07562,0.082 -0.113118,0.1238 l -6.1e-4,0 c -0.107191,0.1195 -0.21324,0.2398 -0.316721,0.3591 l -0.0013,0 c -0.103421,0.119 -0.204059,0.237 -0.300649,0.3523 -0.0099,0.012 -0.01881,0.023 -0.02857,0.034 -0.08613,0.1033 -0.169715,0.2053 -0.247664,0.3025 -0.433313,0.5403 -0.72327,0.968 -0.675118,1.065 l -0.239329,0.01 -0.0013,0 -6.1e-4,0 -0.2839787,0.4691 c -0.05607,-0.031 -0.392926,-0.2203 -0.392926,-0.2203 l -6.1e-4,0 c -0.28079,0.096 -0.4340515,0.2432 -0.5256881,0.415 l -0.00126,0 c -0.00854,0.016 -0.015789,0.032 -0.023225,0.049 -0.00153,0 -0.00279,0.01 -0.00414,0.01 -0.00872,0.02 -0.016427,0.04 -0.023809,0.059 -0.00279,0.01 -0.00566,0.015 -0.00836,0.023 -0.00405,0.012 -0.00764,0.024 -0.011311,0.036 -0.013226,0.042 -0.023683,0.086 -0.03334,0.1298 -0.00279,0.013 -0.00584,0.024 -0.00836,0.037 -0.023045,0.1137 -0.038995,0.2294 -0.059531,0.3441 l 0.4113831,0.2423 -0.06965,0.115 0.06727,0.2469 c -0.8427798,1.7747 -1.4744413,4.8469 -1.5580126,5.9595 -0.024996,0.3326 0.1803113,1.1537 0.2131331,0.9222 0.1324947,-0.9352 0.8547686,-3.9433 1.6371955,-5.3533 0.02822,-0.051 0.05619,-0.099 0.08454,-0.1453 0.0033,-0.01 0.0068,-0.012 0.01012,-0.017 0.02658,-0.043 0.05312,-0.085 0.07977,-0.1238 0.0043,-0.01 0.0088,-0.013 0.01311,-0.019 0.02521,-0.036 0.05037,-0.07 0.07561,-0.1023 0.006,-0.01 0.0118,-0.015 0.01787,-0.023 0.02521,-0.032 0.05102,-0.06 0.0762,-0.087 0.0038,0 0.0075,-0.01 0.01131,-0.012 0.02579,-0.027 0.05109,-0.052 0.0768,-0.075 0.0073,-0.01 0.01469,-0.011 0.02204,-0.017 0.08368,-0.067 0.166844,-0.1106 0.2488537,-0.1208 l 0.102994,0.041 0.186344,0.076 0.226228,-0.3727 4.688333,2.7571 c -0.0034,0.01 -0.0062,0.017 -0.0095,0.026 -0.0039,0.01 -0.007,0.019 -0.0107,0.03 -0.016,0.043 -0.02951,0.086 -0.04108,0.128 -0.004,0.014 -0.0085,0.029 -0.01191,0.042 -0.0024,0.01 -0.0045,0.02 -0.0066,0.03 -0.0056,0.026 -0.01027,0.051 -0.01369,0.076 -0.0013,0.01 -0.0027,0.017 -0.0036,0.026 -0.0036,0.032 -0.0049,0.062 -0.0041,0.091 2.3e-4,0 2.78e-4,0.01 6.1e-4,0.013 0.0013,0.025 0.0042,0.049 0.0089,0.071 0.0015,0.01 0.0033,0.015 0.0054,0.022 0.0018,0.01 0.0037,0.013 0.0059,0.019 0.0041,0.012 0.0088,0.023 0.0143,0.034 0.0015,0 0.0031,0.01 0.0048,0.01 0.05983,0.1048 0.343467,0.3451 0.448297,0.3602 0.104823,0.015 0.151258,0.1658 0.241112,0.2107 0.08985,0.045 0.420908,0.1495 0.420908,0.1495 l 0.523309,0.2237 c 0,0 0.127046,-0.2212 0.270286,-0.4762 l 0.164908,0.097 c -0.06449,0.076 -0.127297,0.1491 -0.180389,0.2142 -0.0611,0.075 -0.112627,0.1406 -0.149431,0.1924 -0.01835,0.026 -0.033,0.049 -0.04346,0.067 -0.0103,0.018 -0.01649,0.032 -0.01787,0.041 -0.02118,0.1482 0.380262,0.4263 0.464964,0.384 0.08471,-0.042 0.445574,0.4637 0.614991,0.506 0.169425,0.042 0.720015,0.1503 0.889443,0.023 0.02116,-0.016 0.04785,-0.044 0.0774,-0.081 0.0296,-0.037 0.06256,-0.084 0.09764,-0.1363 0.02676,-0.04 0.05551,-0.086 0.08394,-0.131 l 0.949574,0.5584 6.1e-4,0 c 0.302898,-0.1377 0.491312,-0.3379 0.557243,-0.6066 0.006,-0.024 0.01088,-0.049 0.01487,-0.075 0.0032,-0.021 0.0053,-0.042 0.0071,-0.063 0.507693,0.3056 1.033223,0.6304 1.176401,0.7019 0.151884,0.076 0.526216,0.2683 0.884086,0.4352 l 0.0637,0.546 -0.02143,-0.01 0.239923,1.8909 0.422695,3.6375 -0.295291,0.6352 0.167292,0.2536 -0.08276,0 -0.338751,1.0586 0.587606,0.03 c 0.0587,0.8002 0.252814,3.4723 0.216108,3.6559 -0.04236,0.2118 -0.254209,0.6776 -0.254209,0.6776 0,0 0.508515,0.4235 0.466155,0.5929 -0.04236,0.1695 -0.508424,0.339 -0.508424,0.5507 0,0.1581 1.06e-4,0.4102 0.08811,0.5281 -1.046073,0.237 -2.528526,0.596 -2.798117,0.7846 -0.423563,0.2965 -0.126807,1.2282 -0.126807,1.2282 l 8.936707,0.1697 -0.126809,-1.9486 -0.04584,0 c -0.0051,-1.1209 -0.0221,-3.0658 -0.08215,-3.4262 -0.05987,-0.3592 -0.01421,-1.73 0.01787,-2.5178 l 0.36435,0.019 c 0,0 -0.211502,-1.4401 -0.423288,-1.4401 l -0.07204,0 c -0.07006,-0.903 -0.305508,-3.9934 -0.269094,-4.321 0.04236,-0.3812 0.466844,-3.43 0.42448,-4.1502 -0.04236,-0.72 0.04406,-2.9647 0.04406,-2.9647 l 0.845389,-0.4245 -1.059711,-1.1312 -0.396498,0.1703 0.02143,-0.2882 c 0.05291,0.049 0.105009,0.097 0.158955,0.1453 l 0.502471,-0.6455 0.60606,0.016 -0.809073,-0.449 0.210158,-0.7192 -0.269692,-0.2995 0.898375,0.2103 -0.449484,-0.7967 c 0.07248,0.024 0.241112,0.078 0.241112,0.078 l 0.597726,-1.4979 -6.1e-4,0 -0.267905,-0.1494 c 0.008,-0.018 0.0146,-0.044 0.02085,-0.071 0.01521,-0.067 0.02482,-0.1579 0.02737,-0.2715 2.22e-4,-0.01 0.0013,-0.014 0.0013,-0.022 0.0015,-0.1149 -0.004,-0.2505 -0.01787,-0.4013 -0.01387,-0.1508 -0.03586,-0.3174 -0.06787,-0.4947 -0.144239,-0.7986 -0.486993,-1.817 -1.155561,-2.6236 -0.106524,-0.3441 -0.253668,-0.6459 -0.454844,-0.8764 -0.0076,-0.01 -0.01787,-0.016 -0.02618,-0.024 -0.0096,-0.01 -0.01978,-0.02 -0.02978,-0.029 -0.01252,-0.011 -0.025,-0.022 -0.0387,-0.032 -0.0024,0 -0.0048,0 -0.0071,-0.01 -0.0057,0 -0.011,-0.01 -0.01667,-0.011 -0.02472,-0.017 -0.05071,-0.034 -0.07858,-0.05 -0.608165,-0.3732 -1.108426,-0.2915 -1.563371,-0.2958 -0.08659,0 -0.165582,0 -0.229804,0 -0.05842,-0.01 -0.118283,-0.01 -0.178604,-0.014 -0.05337,0 -0.107167,-0.01 -0.161933,-0.01 -0.131476,-0.083 -0.4149,-0.2325 -0.762635,-0.2358 l -6.1e-4,0 z m -18.8128656,14.6669 c -0.699044,0 -1.4955859,0.032 -2.3897122,0.098 -0.8778699,0.065 -1.7314742,0.1786 -2.5605736,0.3412 l 0,16.6553 3.8042479,0 0,-6.1695 1.877715,0 c 0.3251385,0.3901 0.6500388,0.8292 0.9751737,1.3169 0.3251385,0.4715 0.6506304,0.9757 0.9757681,1.5122 0.341394,0.5364 0.666295,1.089 0.9751727,1.658 0.325139,0.569 0.642479,1.1297 0.951359,1.6824 l 4.267425,0 c -0.292623,-0.6177 -0.609961,-1.2436 -0.951359,-1.8777 -0.341393,-0.6502 -0.698901,-1.268 -1.072809,-1.8533 -0.35765,-0.6015 -0.72331,-1.1704 -1.097218,-1.7068 -0.373907,-0.5528 -0.731416,-1.0407 -1.072811,-1.4634 1.024183,-0.4227 1.804415,-0.9997 2.340891,-1.7312 0.09171,-0.1241 0.172958,-0.2563 0.249449,-0.3924 l -0.514377,-0.8817 -1.371672,0.1524 0.152408,-1.9813 -1.652079,-0.2756 c 0.02386,0.1425 0.03929,0.2915 0.03929,0.4524 0,0.8616 -0.309191,1.4713 -0.9269507,1.8289 -0.6177621,0.3577 -1.641968,0.5364 -3.0725703,0.5364 l -1.0728093,0 0,-4.5841 c 0.1950823,-0.016 0.3982935,-0.032 0.609632,-0.049 0.2275965,-0.016 0.4797194,-0.024 0.7560865,-0.024 0.031541,0 0.060538,0 0.091683,0 l -1.1734236,-0.7824 1.9813044,-0.9144 -0.8162148,-1.5413 c -0.1020431,0 -0.1989935,-0.01 -0.3030299,-0.01 l 0,0 z m 5.1449596,0.061 0,0 c -0.02442,0 -0.04835,-3e-4 -0.07204,0 l -6.09e-4,0 c -0.332408,0.013 -0.628037,0.2256 -0.811454,0.278 -0.209646,0.06 -0.450957,0.031 -0.600701,0.1804 -0.149756,0.1498 -0.18039,0.3566 -0.18039,0.3566 0,0 0.180567,0.3307 0.539979,0.3906 0.359402,0.06 1.226896,0.029 1.256768,-0.2108 0.02997,-0.2396 0.331613,-0.9283 -0.05775,-0.9882 -0.02432,0 -0.04932,-0.01 -0.07383,-0.01 z m 2.111089,0.9376 c -0.269549,0 -0.930521,0.3602 -0.930521,0.3602 -0.0599,0.3894 0.150213,0.7469 0.509615,0.8967 0.3594,0.1497 1.019061,0.179 1.048994,-0.1804 0.02993,-0.3595 -0.358542,-1.0765 -0.628088,-1.0765 z"
       id="path4171" />
  </g>
</svg>
