<?xml version="1.0" encoding="UTF-8" standalone="no"?>
<!-- Created with Inkscape (http://www.inkscape.org/) -->

<svg
   xmlns:dc="http://purl.org/dc/elements/1.1/"
   xmlns:cc="http://creativecommons.org/ns#"
   xmlns:rdf="http://www.w3.org/1999/02/22-rdf-syntax-ns#"
   xmlns:svg="http://www.w3.org/2000/svg"
   xmlns="http://www.w3.org/2000/svg"
   xmlns:sodipodi="http://sodipodi.sourceforge.net/DTD/sodipodi-0.dtd"
   xmlns:inkscape="http://www.inkscape.org/namespaces/inkscape"
   width="512"
   height="128"
   viewBox="0 0 512 128"
   id="svg2"
   version="1.1"
   inkscape:version="0.91 r13725"
   sodipodi:docname="fossicker-logo.svg"
   inkscape:export-filename="/home/kenanb/dev/lisp/local-projects/fossicker/fossicker-logo.png"
   inkscape:export-xdpi="45"
   inkscape:export-ydpi="45">
  <defs
     id="defs4" />
  <sodipodi:namedview
     id="base"
     pagecolor="#ffffff"
     bordercolor="#666666"
     borderopacity="1.0"
     inkscape:pageopacity="0.0"
     inkscape:pageshadow="2"
     inkscape:zoom="0.75492346"
     inkscape:cx="310.31261"
     inkscape:cy="130.1878"
     inkscape:document-units="px"
     inkscape:current-layer="g6502"
     showgrid="false"
     units="px"
     inkscape:window-width="1020"
     inkscape:window-height="596"
     inkscape:window-x="0"
     inkscape:window-y="0"
     inkscape:window-maximized="0">
    <inkscape:grid
       type="xygrid"
       id="grid3336"
       empspacing="32" />
  </sodipodi:namedview>
  <metadata
     id="metadata7">
    <rdf:RDF>
      <cc:Work
         rdf:about="">
        <dc:format>image/svg+xml</dc:format>
        <dc:type
           rdf:resource="http://purl.org/dc/dcmitype/StillImage" />
        <dc:title></dc:title>
      </cc:Work>
    </rdf:RDF>
  </metadata>
  <g
     inkscape:label="Layer 1"
     inkscape:groupmode="layer"
     id="layer1"
     transform="translate(0,-924.36216)">
    <g
       id="g6484"
       transform="translate(20,-4)">
      <g
         id="g6502">
        <path
           id="path6558"
           transform="translate(-20,928.36216)"
           d="M 479.83398 16.808594 L 479.83398 16.810547 C 479.37238 16.806547 478.87525 16.884944 478.375 17.089844 C 477.92454 17.200824 477.43362 17.476517 476.95117 18.023438 C 469.99639 19.397078 466.97675 23.629489 465.66992 27.417969 C 465.66192 27.405469 465.65684 27.373381 465.64844 27.363281 C 465.15714 26.773721 461.32422 24.90625 461.32422 24.90625 L 460.93164 24.021484 L 457.68945 24.119141 C 457.60215 24.417091 457.52265 24.717338 457.44727 25.017578 C 456.73438 25.620388 455.82031 27.124191 455.82031 30.900391 C 455.82031 35.698441 456.72204 36.776074 457.41016 36.902344 C 457.46816 37.071004 457.52817 37.234626 457.5918 37.384766 C 457.6421 37.405066 457.70216 37.414834 457.75977 37.427734 L 452.54883 39.863281 L 452.24805 41.246094 C 452.24805 41.246094 458.21798 39.395036 464.82812 37.941406 C 465.2058 37.858306 465.58401 37.775422 465.96484 37.695312 C 465.98954 37.690313 466.01456 37.684888 466.03906 37.679688 C 466.26393 38.698488 466.32143 38.950661 466.58594 40.144531 C 466.94827 41.780901 467.0939 42.45518 467.41211 43.875 L 467.42188 43.875 C 467.59884 44.66465 467.87252 45.907209 467.97461 46.349609 C 468.56416 48.904289 467.38477 53.621094 467.38477 53.621094 L 469.54492 53.425781 L 470.24414 58.316406 L 468.34961 59.142578 L 470.15625 60.949219 L 470.40039 63.064453 C 468.85633 62.543923 461.44568 60.312018 461.12109 60.117188 C 460.77369 59.908757 459.38451 57.338159 459.03711 57.199219 C 458.77657 57.095059 457.6592 56.711592 456.99805 56.763672 C 456.77767 56.780972 456.6105 56.847368 456.54102 56.986328 C 456.35776 57.352848 456.27171 57.908013 456.23047 58.257812 L 456.22852 58.257812 C 456.22552 58.287213 456.2237 58.283647 456.2207 58.310547 C 456.2061 58.441257 456.19877 58.524568 456.19727 58.548828 C 456.19651 58.551828 456.19336 58.579978 456.19336 58.580078 L 456.19336 58.582031 C 456.19297 58.582451 455.98404 58.811007 455.875 58.929688 C 455.05591 58.441298 454.38514 58.044196 453.5918 57.572266 C 453.15739 57.147456 452.63365 56.747163 452.39453 56.720703 C 452.34063 56.714703 452.21708 56.709425 452.12695 56.703125 C 451.90368 56.570585 451.65736 56.421782 451.44336 56.294922 C 451.59046 56.279922 451.69974 56.234416 451.71484 56.128906 C 451.76394 55.784996 452.44342 53.619764 451.80469 53.521484 C 451.72489 53.509184 451.63889 53.513484 451.54688 53.521484 C 450.90274 53.577884 450.04297 54.068359 450.04297 54.068359 C 450.04297 54.068359 449.98423 54.87315 450.05273 55.46875 C 448.44788 54.52074 447.31488 53.859796 447.16016 53.791016 C 446.53484 53.513146 445.77013 51.914392 444.51953 51.289062 C 443.75403 50.906433 438.34502 47.878472 433.56445 45.195312 L 434.26758 44.037109 L 433.76367 43.101562 C 435.05734 39.868563 441.80645 30.795873 443.28711 29.751953 C 443.91012 29.312763 442.95931 28.134167 442.00195 27.873047 C 441.96495 27.862247 441.92804 27.849197 441.89062 27.841797 C 441.49025 27.764997 440.15043 28.902063 438.51367 30.533203 L 438.50977 30.535156 C 438.18289 30.860956 437.84349 31.207036 437.49805 31.566406 L 437.49609 31.568359 C 437.15058 31.927849 436.79912 32.300071 436.44531 32.681641 C 436.2145 32.930511 435.9827 33.187146 435.75195 33.441406 C 435.62828 33.577686 435.50388 33.710546 435.38086 33.847656 C 435.37886 33.849656 435.37991 33.850563 435.37891 33.851562 C 435.02725 34.243523 434.67933 34.638257 434.33984 35.029297 L 434.33594 35.033203 C 433.99665 35.424053 433.66649 35.811023 433.34961 36.189453 C 433.31701 36.228353 433.28806 36.264044 433.25586 36.302734 C 432.97331 36.641544 432.69908 36.975932 432.44336 37.294922 C 431.0218 39.067832 430.07055 40.471072 430.22852 40.789062 L 429.44336 40.810547 L 429.43945 40.816406 L 429.4375 40.816406 L 428.50586 42.355469 C 428.32193 42.252039 427.2168 41.632812 427.2168 41.632812 L 427.21484 41.632812 C 426.29366 41.948263 425.79086 42.430431 425.49023 42.994141 L 425.48633 42.992188 C 425.45843 43.044387 425.43456 43.098904 425.41016 43.152344 C 425.40516 43.161344 425.40118 43.172141 425.39648 43.181641 C 425.36798 43.246041 425.34256 43.310903 425.31836 43.376953 C 425.30936 43.401153 425.29962 43.426772 425.29102 43.451172 C 425.27772 43.489972 425.26591 43.529179 425.25391 43.568359 C 425.21051 43.707259 425.1762 43.850571 425.14453 43.994141 C 425.13553 44.034741 425.12529 44.074344 425.11719 44.115234 C 425.04159 44.488134 424.98926 44.869894 424.92188 45.246094 L 426.27148 46.039062 L 426.04297 46.416016 L 426.26367 47.226562 C 423.49879 53.048683 421.42651 63.127204 421.15234 66.777344 C 421.07034 67.868704 421.74388 70.564417 421.85156 69.804688 C 422.28624 66.736638 424.65578 56.868178 427.22266 52.242188 C 427.31526 52.075298 427.40698 51.916402 427.5 51.763672 C 427.5109 51.745872 427.5223 51.728437 427.5332 51.710938 C 427.6204 51.569488 427.70749 51.432617 427.79492 51.304688 C 427.80912 51.284088 427.82369 51.264441 427.83789 51.244141 C 427.92059 51.125241 428.00313 51.014043 428.08594 50.908203 C 428.10584 50.882803 428.12463 50.858484 428.14453 50.833984 C 428.22723 50.731614 428.31191 50.635285 428.39453 50.546875 C 428.40703 50.533575 428.41914 50.520913 428.43164 50.507812 C 428.51624 50.419512 428.59923 50.336332 428.68359 50.263672 C 428.70759 50.243072 428.73176 50.228384 428.75586 50.208984 C 429.03039 49.987454 429.30322 49.8461 429.57227 49.8125 L 429.91016 49.947266 L 430.52148 50.197266 L 431.26367 48.974609 L 446.64453 58.019531 C 446.63323 58.047331 446.62398 58.075816 446.61328 58.103516 C 446.60058 58.135916 446.59013 58.166919 446.57812 58.199219 C 446.52562 58.341709 446.48133 58.481701 446.44336 58.619141 C 446.43036 58.665841 446.4155 58.711942 446.4043 58.757812 C 446.3963 58.790612 446.38961 58.823169 446.38281 58.855469 C 446.36451 58.940069 446.34909 59.022866 446.33789 59.103516 C 446.33389 59.131816 446.32887 59.1597 446.32617 59.1875 C 446.31447 59.29156 446.3103 59.391618 446.3125 59.486328 C 446.31325 59.500828 446.31345 59.513144 446.31445 59.527344 C 446.31845 59.609544 446.32845 59.686686 446.34375 59.759766 C 446.34875 59.784166 446.35453 59.810784 446.36133 59.833984 C 446.36733 59.855684 446.37336 59.875684 446.38086 59.896484 C 446.39456 59.935784 446.40963 59.972483 446.42773 60.007812 C 446.43273 60.018412 446.43776 60.030516 446.44336 60.041016 C 446.63963 60.385056 447.57015 61.173516 447.91406 61.222656 C 448.25796 61.271756 448.4103 61.766673 448.70508 61.914062 C 448.99985 62.061442 450.08594 62.404297 450.08594 62.404297 L 451.80273 63.138672 L 451.80273 63.136719 C 451.80273 63.136719 452.21953 62.410699 452.68945 61.574219 L 453.23047 61.892578 C 453.01892 62.139768 452.81285 62.382203 452.63867 62.595703 L 452.63867 62.597656 C 452.43824 62.843346 452.26918 63.058616 452.14844 63.228516 C 452.08824 63.313216 452.04019 63.387626 452.00586 63.447266 C 451.97206 63.506166 451.95177 63.553854 451.94727 63.583984 C 451.87777 64.070324 453.19478 64.98272 453.47266 64.84375 C 453.75057 64.7048 454.93443 66.364976 455.49023 66.503906 C 456.04606 66.642926 457.85236 66.997008 458.4082 66.580078 C 458.4776 66.527878 458.56519 66.436343 458.66211 66.314453 C 458.75921 66.192293 458.86736 66.038747 458.98242 65.867188 C 459.07022 65.736167 459.16454 65.5867 459.25781 65.4375 L 462.37305 67.269531 L 462.375 67.269531 C 463.36871 66.817991 463.98682 66.160977 464.20312 65.279297 C 464.22292 65.199597 464.23885 65.118526 464.25195 65.035156 C 464.25195 65.033156 464.2518 65.03225 464.25195 65.03125 C 464.26245 64.96415 464.26939 64.893729 464.27539 64.824219 C 465.94096 65.826599 467.66505 66.892093 468.13477 67.126953 C 468.63305 67.376093 469.86111 68.006837 471.03516 68.554688 L 471.24414 70.345703 L 471.17383 70.324219 L 471.96094 76.527344 L 473.34766 88.460938 L 472.37891 90.544922 L 472.92773 91.376953 L 472.65625 91.376953 L 471.54492 94.849609 L 473.47266 94.947266 C 473.66523 97.572466 474.30206 106.33911 474.18164 106.94141 C 474.04268 107.63621 473.34766 109.16406 473.34766 109.16406 C 473.34766 109.16406 475.01592 110.55357 474.87695 111.10938 C 474.73799 111.66518 473.20898 112.22132 473.20898 112.91602 C 473.20898 113.43452 473.20934 114.26154 473.49805 114.64844 C 470.06623 115.42594 465.2028 116.60366 464.31836 117.22266 C 462.92879 118.19526 463.90234 121.25195 463.90234 121.25195 L 493.2207 121.80859 L 492.80469 115.41602 L 492.6543 115.40234 C 492.6376 111.72484 492.5818 105.34451 492.38477 104.16211 C 492.18835 102.98351 492.33816 98.486644 492.44336 95.902344 L 493.63867 95.962891 C 493.63867 95.962891 492.9448 91.238281 492.25 91.238281 L 492.01367 91.238281 C 491.78382 88.275681 491.0114 78.1373 491.13086 77.0625 C 491.26982 75.8119 492.66242 65.809626 492.52344 63.447266 C 492.38448 61.085016 492.66797 53.720703 492.66797 53.720703 L 495.44141 52.328125 L 491.96484 48.617188 L 490.66406 49.175781 L 490.73438 48.230469 C 490.90796 48.389899 491.07888 48.547601 491.25586 48.707031 L 492.9043 46.589844 L 494.89258 46.642578 L 492.23828 45.169922 L 492.92773 42.810547 L 492.04297 41.828125 L 494.99023 42.517578 L 493.51562 39.904297 C 493.7534 39.983697 494.30664 40.162109 494.30664 40.162109 L 496.26758 35.248047 L 496.26562 35.248047 L 495.38672 34.757812 C 495.41312 34.698013 495.43458 34.613427 495.45508 34.523438 C 495.50498 34.305718 495.53652 34.005513 495.54492 33.632812 C 495.54565 33.607012 495.54883 33.587047 495.54883 33.560547 C 495.55383 33.183397 495.53563 32.738741 495.49023 32.244141 L 495.49023 32.242188 C 495.44473 31.747097 495.3726 31.200811 495.26758 30.619141 C 494.79438 27.999271 493.66991 24.657949 491.47656 22.011719 C 491.1271 20.882839 490.64437 19.893069 489.98438 19.136719 C 489.95938 19.108019 489.92574 19.084241 489.89844 19.056641 C 489.86694 19.023041 489.83358 18.992591 489.80078 18.962891 C 489.75968 18.926691 489.71879 18.891592 489.67383 18.857422 C 489.66583 18.852422 489.65819 18.843091 489.65039 18.837891 C 489.63179 18.825191 489.6143 18.815234 489.5957 18.802734 C 489.5146 18.745634 489.42936 18.690332 489.33789 18.638672 C 487.3427 17.414092 485.7015 17.682039 484.20898 17.667969 C 483.92491 17.659969 483.66577 17.65675 483.45508 17.65625 C 483.26342 17.63445 483.06703 17.621828 482.86914 17.611328 C 482.69403 17.599028 482.51756 17.588331 482.33789 17.582031 C 481.90656 17.311601 480.97674 16.819654 479.83594 16.808594 L 479.83398 16.808594 z M 90.511719 64.279297 C 86.831719 64.279297 83.313125 64.892474 79.953125 66.119141 C 76.646458 67.345807 73.712344 69.187278 71.152344 71.640625 C 68.645677 74.093958 66.645677 77.133099 65.152344 80.759766 C 63.65901 84.333099 62.912109 88.493568 62.912109 93.240234 C 62.912109 97.986901 63.632266 102.17411 65.072266 105.80078 C 66.512266 109.37411 68.485521 112.38651 70.992188 114.83984 C 73.498854 117.23984 76.432969 119.05263 79.792969 120.2793 C 83.152969 121.50596 86.725052 122.11914 90.511719 122.11914 C 94.405052 122.11914 98.032578 121.50596 101.39258 120.2793 C 104.80591 119.05263 107.74002 117.23984 110.19336 114.83984 C 112.64669 112.38651 114.56646 109.37411 115.95312 105.80078 C 117.39312 102.17411 118.11328 97.986901 118.11328 93.240234 C 118.11328 88.493568 117.39312 84.333099 115.95312 80.759766 C 114.51313 77.133099 112.53987 74.093958 110.0332 71.640625 C 107.52654 69.187278 104.59242 67.345807 101.23242 66.119141 C 97.872422 64.892474 94.298385 64.279297 90.511719 64.279297 z M 146.35742 64.279297 C 143.21076 64.279297 140.38362 64.680469 137.87695 65.480469 C 135.37029 66.227135 133.23656 67.319766 131.47656 68.759766 C 129.71656 70.199766 128.35844 71.961002 127.39844 74.041016 C 126.43844 76.067682 125.95703 78.359922 125.95703 80.919922 C 125.95703 83.479922 126.41169 85.667135 127.31836 87.480469 C 128.22503 89.240469 129.39789 90.761016 130.83789 92.041016 C 132.27789 93.267682 133.90346 94.306823 135.7168 95.160156 C 137.53013 95.960156 139.34487 96.680312 141.1582 97.320312 C 145.3182 98.706979 148.25036 100.01357 149.95703 101.24023 C 151.6637 102.41357 152.51758 103.90737 152.51758 105.7207 C 152.51758 106.57404 152.38385 107.34768 152.11719 108.04102 C 151.85052 108.73435 151.37107 109.34753 150.67773 109.88086 C 149.9844 110.36086 149.05029 110.76008 147.87695 111.08008 C 146.75695 111.34674 145.31664 111.48047 143.55664 111.48047 C 140.03664 111.48047 137.05099 111.13279 134.59766 110.43945 C 132.19766 109.69279 130.17091 108.8676 128.51758 107.96094 L 124.99805 117.88086 C 125.74471 118.30753 126.65013 118.76023 127.7168 119.24023 C 128.8368 119.72023 130.14339 120.17294 131.63672 120.59961 C 133.18339 121.02628 134.94464 121.37396 136.91797 121.64062 C 138.8913 121.96063 141.10331 122.11914 143.55664 122.11914 C 150.86331 122.11914 156.33036 120.70753 159.95703 117.88086 C 163.5837 115.00086 165.39844 110.97411 165.39844 105.80078 C 165.39844 103.13411 165.05076 100.86667 164.35742 99 C 163.66409 97.133333 162.5982 95.505807 161.1582 94.119141 C 159.77154 92.732474 158.01029 91.532865 155.87695 90.519531 C 153.74362 89.452865 151.23742 88.386979 148.35742 87.320312 C 146.97076 86.840312 145.69091 86.387604 144.51758 85.960938 C 143.39758 85.480937 142.38323 84.972786 141.47656 84.439453 C 140.62323 83.852786 139.95656 83.212865 139.47656 82.519531 C 138.99656 81.826198 138.75781 80.974271 138.75781 79.960938 C 138.75781 78.254271 139.39773 76.999219 140.67773 76.199219 C 142.01107 75.345885 144.17154 74.919922 147.1582 74.919922 C 149.82487 74.919922 152.09036 75.240859 153.95703 75.880859 C 155.87703 76.467526 157.61154 77.160937 159.1582 77.960938 L 162.75781 68.119141 C 160.99781 67.159141 158.75711 66.280469 156.03711 65.480469 C 153.31711 64.680469 150.09076 64.279297 146.35742 64.279297 z M 192.91992 64.279297 C 189.77326 64.279297 186.94612 64.680469 184.43945 65.480469 C 181.93279 66.227135 179.79906 67.319766 178.03906 68.759766 C 176.27906 70.199766 174.92094 71.961002 173.96094 74.041016 C 173.00094 76.067682 172.51953 78.359922 172.51953 80.919922 C 172.51953 83.479922 172.97419 85.667135 173.88086 87.480469 C 174.78753 89.240469 175.96039 90.761016 177.40039 92.041016 C 178.84039 93.267682 180.46596 94.306823 182.2793 95.160156 C 184.09263 95.960156 185.90737 96.680312 187.7207 97.320312 C 191.8807 98.706979 194.81286 100.01357 196.51953 101.24023 C 198.2262 102.41357 199.08008 103.90737 199.08008 105.7207 C 199.08008 106.57404 198.94635 107.34768 198.67969 108.04102 C 198.41302 108.73435 197.93357 109.34753 197.24023 109.88086 C 196.5469 110.36086 195.61279 110.76008 194.43945 111.08008 C 193.31945 111.34674 191.87914 111.48047 190.11914 111.48047 C 186.59914 111.48047 183.61349 111.13279 181.16016 110.43945 C 178.76016 109.69279 176.73341 108.8676 175.08008 107.96094 L 171.56055 117.88086 C 172.30721 118.30753 173.21263 118.76023 174.2793 119.24023 C 175.3993 119.72023 176.70589 120.17294 178.19922 120.59961 C 179.74589 121.02628 181.50714 121.37396 183.48047 121.64062 C 185.4538 121.96063 187.66581 122.11914 190.11914 122.11914 C 197.42581 122.11914 202.89286 120.70753 206.51953 117.88086 C 210.1462 115.00086 211.96094 110.97411 211.96094 105.80078 C 211.96094 103.13411 211.61326 100.86667 210.91992 99 C 210.22659 97.133333 209.1607 95.505807 207.7207 94.119141 C 206.33404 92.732474 204.57279 91.532865 202.43945 90.519531 C 200.30612 89.452865 197.79992 88.386979 194.91992 87.320312 C 193.53326 86.840312 192.25341 86.387604 191.08008 85.960938 C 189.96008 85.480937 188.94573 84.972786 188.03906 84.439453 C 187.18573 83.852786 186.51906 83.212865 186.03906 82.519531 C 185.55906 81.826198 185.32031 80.974271 185.32031 79.960938 C 185.32031 78.254271 185.96023 76.999219 187.24023 76.199219 C 188.57357 75.345885 190.73404 74.919922 193.7207 74.919922 C 196.38737 74.919922 198.65286 75.240859 200.51953 75.880859 C 202.43953 76.467526 204.17404 77.160937 205.7207 77.960938 L 209.32031 68.119141 C 207.56031 67.159141 205.31961 66.280469 202.59961 65.480469 C 199.87961 64.680469 196.65326 64.279297 192.91992 64.279297 z M 272.79492 64.279297 C 268.74159 64.279297 264.98229 64.919219 261.51562 66.199219 C 258.04896 67.479219 255.06135 69.374179 252.55469 71.880859 C 250.04802 74.334193 248.07477 77.373333 246.63477 81 C 245.19477 84.573333 244.47461 88.653568 244.47461 93.240234 C 244.47461 102.4669 246.82229 109.58628 251.51562 114.59961 C 256.26229 119.61294 263.14096 122.11914 272.1543 122.11914 C 276.36763 122.11914 280.07539 121.69318 283.27539 120.83984 C 286.47539 119.98651 288.95484 119.0276 290.71484 117.96094 L 287.27539 107.96094 C 286.58206 108.28094 285.80841 108.62667 284.95508 109 C 284.10174 109.37333 283.11414 109.72102 281.99414 110.04102 C 280.87414 110.30768 279.5943 110.54643 278.1543 110.75977 C 276.7143 110.9731 275.08872 111.08008 273.27539 111.08008 C 270.39539 111.08008 267.94073 110.62737 265.91406 109.7207 C 263.8874 108.7607 262.23508 107.48086 260.95508 105.88086 C 259.72841 104.28086 258.82104 102.38589 258.23438 100.19922 C 257.70104 97.959219 257.43555 95.56 257.43555 93 C 257.43555 89.8 257.86151 87.079844 258.71484 84.839844 C 259.56818 82.599844 260.68755 80.787057 262.07422 79.400391 C 263.51422 77.960391 265.14174 76.919297 266.95508 76.279297 C 268.82174 75.639297 270.71477 75.320312 272.63477 75.320312 C 275.51477 75.320312 278.07445 75.639297 280.31445 76.279297 C 282.60779 76.919297 284.60779 77.692943 286.31445 78.599609 L 289.91406 68.519531 C 289.4874 68.252865 288.79594 67.880391 287.83594 67.400391 C 286.87594 66.920391 285.67437 66.465729 284.23438 66.039062 C 282.79437 65.559062 281.11531 65.159844 279.19531 64.839844 C 277.27531 64.46651 275.14159 64.279297 272.79492 64.279297 z M 418.11523 64.919922 C 415.8219 64.919922 413.20872 65.026904 410.27539 65.240234 C 407.39539 65.453574 404.595 65.826035 401.875 66.359375 L 401.875 121 L 414.35547 121 L 414.35547 100.75977 L 420.51562 100.75977 C 421.58229 102.03977 422.64818 103.48008 423.71484 105.08008 C 424.78151 106.62678 425.84935 108.28102 426.91602 110.04102 C 428.03602 111.80102 429.1019 113.61387 430.11523 115.48047 C 431.1819 117.34717 432.223 119.1866 433.23633 121 L 447.23633 121 C 446.27633 118.9733 445.23524 116.91984 444.11523 114.83984 C 442.99523 112.70654 441.82237 110.67977 440.5957 108.75977 C 439.42237 106.78647 438.22276 104.92016 436.99609 103.16016 C 435.76943 101.34686 434.59656 99.746075 433.47656 98.359375 C 436.83656 96.972775 439.39625 95.079687 441.15625 92.679688 C 441.45711 92.272687 441.72367 91.839278 441.97461 91.392578 L 440.28711 88.5 L 435.78711 89 L 436.28711 82.5 L 430.86719 81.595703 C 430.94549 82.063303 430.99609 82.552278 430.99609 83.080078 C 430.99609 85.906778 429.98175 87.906778 427.95508 89.080078 C 425.92841 90.253478 422.56833 90.839844 417.875 90.839844 L 414.35547 90.839844 L 414.35547 75.800781 C 414.99547 75.747781 415.66214 75.693925 416.35547 75.640625 C 417.10214 75.587625 417.92927 75.560547 418.83594 75.560547 C 418.93943 75.560547 419.03454 75.570312 419.13672 75.570312 L 415.28711 73.003906 L 421.78711 70.003906 L 419.10938 64.947266 C 418.77461 64.942266 418.45654 64.923828 418.11523 64.923828 L 418.11523 64.919922 z M 434.99414 65.121094 C 434.91403 65.117804 434.83551 65.120047 434.75781 65.123047 L 434.75586 65.123047 C 433.66534 65.163627 432.69548 65.863236 432.09375 66.035156 C 431.40597 66.231666 430.61431 66.135703 430.12305 66.626953 C 429.63175 67.118273 429.53125 67.796875 429.53125 67.796875 C 429.53125 67.796875 430.12362 68.881605 431.30273 69.078125 C 432.48181 69.274625 435.32778 69.172769 435.42578 68.386719 C 435.52404 67.600679 436.51369 65.341051 435.23633 65.144531 C 435.1565 65.132231 435.07454 65.124094 434.99414 65.121094 z M 20 65.560547 L 20 121 L 32.480469 121 L 32.480469 98.119141 L 54.400391 98.119141 L 54.400391 87.640625 L 32.480469 87.640625 L 32.480469 76.041016 L 57.119141 76.041016 L 57.119141 65.560547 L 20 65.560547 z M 221.5625 65.560547 L 221.5625 121 L 234.04297 121 L 234.04297 65.560547 L 221.5625 65.560547 z M 298.75 65.560547 L 298.75 121 L 311.23047 121 L 311.23047 97.560547 C 313.15047 99.05388 315.07023 100.78643 316.99023 102.75977 C 318.91023 104.67977 320.74977 106.70651 322.50977 108.83984 C 324.3231 110.91984 325.97737 113.02682 327.4707 115.16016 C 329.01737 117.24016 330.3507 119.18667 331.4707 121 L 346.26953 121 C 342.48286 114.86667 338.50961 109.26589 334.34961 104.19922 C 330.24294 99.132552 325.97745 94.760078 321.55078 91.080078 C 325.76411 86.866745 329.76411 82.679531 333.55078 78.519531 C 337.39078 74.359531 341.20357 70.04056 344.99023 65.560547 L 330.18945 65.560547 C 327.36279 68.707214 324.2969 72.147513 320.99023 75.880859 C 317.7369 79.560859 314.4838 83.106198 311.23047 86.519531 L 311.23047 65.560547 L 298.75 65.560547 z M 353.4375 65.560547 L 353.4375 121 L 392.7168 121 L 392.7168 110.51953 L 365.91797 110.51953 L 365.91797 97.160156 L 388.07812 97.160156 L 388.07812 86.919922 L 365.91797 86.919922 L 365.91797 76.041016 L 390.87695 76.041016 L 390.87695 65.560547 L 353.4375 65.560547 z M 441.91992 68.195312 C 441.03562 68.195312 438.86719 69.376953 438.86719 69.376953 C 438.67067 70.654283 439.35999 71.827059 440.53906 72.318359 C 441.71813 72.809659 443.88227 72.905662 443.98047 71.726562 C 444.07872 70.547463 442.80421 68.195312 441.91992 68.195312 z M 90.511719 75.240234 C 92.805052 75.240234 94.858542 75.666198 96.671875 76.519531 C 98.538542 77.372865 100.08583 78.599219 101.3125 80.199219 C 102.5925 81.745885 103.55336 83.640859 104.19336 85.880859 C 104.88669 88.067526 105.23242 90.520234 105.23242 93.240234 C 105.23242 95.960234 104.88669 98.412943 104.19336 100.59961 C 103.55336 102.78628 102.5925 104.6793 101.3125 106.2793 C 100.08583 107.82596 98.538542 109.02753 96.671875 109.88086 C 94.858542 110.73419 92.805052 111.16016 90.511719 111.16016 C 88.165052 111.16016 86.086771 110.73419 84.273438 109.88086 C 82.460104 109.02753 80.912813 107.82596 79.632812 106.2793 C 78.406146 104.6793 77.445286 102.78628 76.751953 100.59961 C 76.111953 98.412943 75.792969 95.960234 75.792969 93.240234 C 75.792969 90.573568 76.111953 88.147604 76.751953 85.960938 C 77.445286 83.720938 78.406146 81.825964 79.632812 80.279297 C 80.912813 78.679297 82.460104 77.452943 84.273438 76.599609 C 86.086771 75.692943 88.165052 75.240234 90.511719 75.240234 z "
           style="font-style:normal;font-variant:normal;font-weight:bold;font-stretch:normal;font-size:80px;line-height:125%;font-family:Ubuntu;-inkscape-font-specification:'Ubuntu Bold';letter-spacing:0px;word-spacing:0px;fill:#333333;fill-opacity:1;stroke:none;stroke-width:1px;stroke-linecap:butt;stroke-linejoin:miter;stroke-opacity:1" />
        <path
           style="font-style:normal;font-variant:normal;font-weight:bold;font-stretch:normal;font-size:80px;line-height:125%;font-family:Ubuntu;-inkscape-font-specification:'Ubuntu Bold';letter-spacing:0px;word-spacing:0px;fill:#333333;fill-opacity:1;stroke:none;stroke-width:1px;stroke-linecap:butt;stroke-linejoin:miter;stroke-opacity:1"
           d="m 459.83398,945.17075 0,0.002 c -0.4616,-0.004 -0.95873,0.0744 -1.45898,0.2793 -0.45046,0.11098 -0.94138,0.38667 -1.42383,0.9336 -6.95478,1.37363 -9.97442,5.60605 -11.28125,9.39453 -0.008,-0.0125 -0.0131,-0.0446 -0.0215,-0.0547 -0.4913,-0.58956 -4.32422,-2.45703 -4.32422,-2.45703 l -0.39258,-0.88477 -3.24219,0.0977 c -0.0873,0.29795 -0.1668,0.5982 -0.24218,0.89844 -0.71289,0.60281 -1.62696,2.10661 -1.62696,5.88281 0,4.79805 0.90173,5.87568 1.58985,6.00195 0.058,0.16866 0.11801,0.33228 0.18164,0.48242 0.0503,0.0203 0.11036,0.0301 0.16797,0.043 l -5.21094,2.43555 -0.30078,1.38281 c 0,0 5.96993,-1.85105 12.58007,-3.30468 0.37768,-0.0831 0.75589,-0.16599 1.13672,-0.2461 0.0247,-0.005 0.0497,-0.0104 0.0742,-0.0156 0.22487,1.0188 0.28237,1.27097 0.54688,2.46485 0.36233,1.63636 0.50796,2.31064 0.82617,3.73046 l 0.01,0 c 0.17696,0.78965 0.45064,2.03221 0.55273,2.47461 0.58955,2.55468 -0.58984,7.27149 -0.58984,7.27149 l 2.16015,-0.19531 0.69922,4.89062 -1.89453,0.82617 1.80664,1.80664 0.24414,2.11524 c -1.54406,-0.52053 -8.95471,-2.75244 -9.2793,-2.94727 -0.3474,-0.20843 -1.73658,-2.77903 -2.08398,-2.91797 -0.26054,-0.10416 -1.37791,-0.48762 -2.03906,-0.43554 -0.22038,0.0173 -0.38755,0.0837 -0.45703,0.22265 -0.18326,0.36652 -0.26931,0.92169 -0.31055,1.27149 l -0.002,0 c -0.003,0.0294 -0.005,0.0258 -0.008,0.0527 -0.0146,0.13071 -0.0219,0.21402 -0.0234,0.23828 -7.6e-4,0.003 -0.004,0.0312 -0.004,0.0312 l 0,0.002 c -3.9e-4,4.2e-4 -0.20932,0.22897 -0.31836,0.34765 -0.81909,-0.48839 -1.48986,-0.88549 -2.2832,-1.35742 -0.43441,-0.42481 -0.95815,-0.8251 -1.19727,-0.85156 -0.0539,-0.006 -0.17745,-0.0113 -0.26758,-0.0176 -0.22327,-0.13254 -0.46959,-0.28134 -0.68359,-0.4082 0.1471,-0.015 0.25638,-0.0605 0.27148,-0.16602 0.0491,-0.34391 0.72858,-2.50914 0.0899,-2.60742 -0.0798,-0.0123 -0.1658,-0.008 -0.25781,0 -0.64414,0.0564 -1.50391,0.54687 -1.50391,0.54687 0,0 -0.0587,0.80479 0.01,1.40039 -1.60485,-0.94801 -2.73785,-1.60895 -2.89257,-1.67773 -0.62532,-0.27787 -1.39003,-1.87662 -2.64063,-2.50195 -0.7655,-0.38263 -6.17451,-3.41059 -10.95508,-6.09375 l 0.70313,-1.15821 -0.50391,-0.93554 c 1.29367,-3.233 8.04278,-12.30569 9.52344,-13.34961 0.62301,-0.43919 -0.3278,-1.61779 -1.28516,-1.87891 -0.037,-0.0108 -0.0739,-0.0239 -0.11133,-0.0312 -0.40037,-0.0768 -1.74019,1.06027 -3.37695,2.69141 l -0.004,0.002 c -0.32688,0.3258 -0.66628,0.67188 -1.01172,1.03125 l -0.002,0.002 c -0.34551,0.35949 -0.69697,0.73171 -1.05078,1.11328 -0.23081,0.24887 -0.46261,0.5055 -0.69336,0.75976 -0.12367,0.13628 -0.24807,0.26914 -0.37109,0.40625 -0.002,0.002 -9.5e-4,0.003 -0.002,0.004 -0.35166,0.39196 -0.69958,0.7867 -1.03907,1.17774 l -0.004,0.004 c -0.33929,0.39085 -0.66945,0.77782 -0.98633,1.15625 -0.0326,0.0389 -0.0616,0.0746 -0.0937,0.11328 -0.28255,0.33881 -0.55678,0.6732 -0.8125,0.99219 -1.42156,1.77291 -2.37281,3.17615 -2.21484,3.49414 l -0.78516,0.0215 -0.004,0.006 -0.002,0 -0.93164,1.53906 c -0.18393,-0.10343 -1.28906,-0.72266 -1.28906,-0.72266 l -0.002,0 c -0.92118,0.31546 -1.42398,0.79762 -1.72461,1.36133 l -0.004,-0.002 c -0.0279,0.0522 -0.0518,0.10672 -0.0762,0.16016 -0.005,0.009 -0.009,0.0198 -0.0137,0.0293 -0.0285,0.0644 -0.0539,0.12926 -0.0781,0.19531 -0.009,0.0242 -0.0187,0.0498 -0.0273,0.0742 -0.0133,0.0388 -0.0251,0.078 -0.0371,0.11719 -0.0434,0.1389 -0.0777,0.28221 -0.10938,0.42578 -0.009,0.0406 -0.0192,0.0802 -0.0273,0.12109 -0.0756,0.3729 -0.12793,0.75466 -0.19531,1.13086 l 1.3496,0.79297 -0.22851,0.37695 0.2207,0.81055 c -2.76488,5.82212 -4.83716,15.90064 -5.11133,19.55078 -0.082,1.09136 0.59154,3.78708 0.69922,3.02735 0.43468,-3.06805 2.80422,-12.93651 5.3711,-17.5625 0.0926,-0.16689 0.18432,-0.32579 0.27734,-0.47852 0.0109,-0.0178 0.0223,-0.0352 0.0332,-0.0527 0.0872,-0.14145 0.17429,-0.27832 0.26172,-0.40625 0.0142,-0.0206 0.0288,-0.0403 0.043,-0.0606 0.0827,-0.1189 0.16524,-0.2301 0.24805,-0.33594 0.0199,-0.0254 0.0387,-0.0497 0.0586,-0.0742 0.0827,-0.10237 0.16738,-0.1987 0.25,-0.28711 0.0125,-0.0133 0.0246,-0.026 0.0371,-0.0391 0.0846,-0.0883 0.16759,-0.17148 0.25195,-0.24414 0.024,-0.0206 0.0482,-0.0353 0.0723,-0.0547 0.27453,-0.22153 0.54736,-0.36288 0.81641,-0.39648 l 0.33789,0.13477 0.61132,0.25 0.74219,-1.22266 15.38086,9.04492 c -0.0113,0.0278 -0.0205,0.0563 -0.0312,0.084 -0.0127,0.0324 -0.0231,0.0634 -0.0352,0.0957 -0.0525,0.14249 -0.0968,0.28248 -0.13476,0.41992 -0.013,0.0467 -0.0279,0.0928 -0.0391,0.13867 -0.008,0.0328 -0.0147,0.0654 -0.0215,0.0977 -0.0183,0.0846 -0.0337,0.1674 -0.0449,0.24805 -0.004,0.0283 -0.009,0.0562 -0.0117,0.084 -0.0117,0.10406 -0.0159,0.20412 -0.0137,0.29883 7.5e-4,0.0145 9.5e-4,0.0268 0.002,0.041 0.004,0.0822 0.014,0.15934 0.0293,0.23242 0.005,0.0244 0.0108,0.051 0.0176,0.0742 0.006,0.0217 0.012,0.0417 0.0195,0.0625 0.0137,0.0393 0.0288,0.076 0.0469,0.11133 0.005,0.0106 0.01,0.0227 0.0156,0.0332 0.19627,0.34404 1.12679,1.1325 1.4707,1.18164 0.3439,0.0491 0.49624,0.54402 0.79102,0.6914 0.29477,0.14738 1.38086,0.49024 1.38086,0.49024 l 1.71679,0.73437 0,-0.002 c 0,0 0.4168,-0.72603 0.88672,-1.5625 l 0.54102,0.31835 c -0.21155,0.24719 -0.41762,0.48963 -0.5918,0.70313 l 0,0.002 c -0.20043,0.24569 -0.36949,0.46096 -0.49023,0.63086 -0.0602,0.0847 -0.10825,0.15911 -0.14258,0.21875 -0.0338,0.0589 -0.0541,0.10659 -0.0586,0.13672 -0.0695,0.48634 1.24751,1.39873 1.52539,1.25976 0.27791,-0.13895 1.46177,1.52123 2.01757,1.66016 0.55583,0.13902 2.36213,0.4931 2.91797,0.0762 0.0694,-0.0522 0.15699,-0.14374 0.25391,-0.26563 0.0971,-0.12216 0.20525,-0.2757 0.32031,-0.44726 0.0878,-0.13102 0.18212,-0.28049 0.27539,-0.42969 l 3.11524,1.83203 0.002,0 c 0.99371,-0.45154 1.61182,-1.10855 1.82812,-1.99023 0.0198,-0.0797 0.0357,-0.16077 0.0488,-0.24414 0,-0.002 -1.5e-4,-0.003 0,-0.004 0.0105,-0.0671 0.0174,-0.13752 0.0234,-0.20703 1.66557,1.00238 3.38966,2.06787 3.85938,2.30273 0.49828,0.24914 1.72634,0.87988 2.90039,1.42773 l 0.20898,1.79102 -0.0703,-0.0215 0.78711,6.20315 1.38672,11.9336 -0.96875,2.084 0.54882,0.832 -0.27148,0 -1.11133,3.4726 1.92774,0.098 c 0.19257,2.6252 0.8294,11.3918 0.70898,11.9941 -0.13896,0.6948 -0.83398,2.2227 -0.83398,2.2227 0,0 1.66826,1.3895 1.52929,1.9453 -0.13896,0.5558 -1.66797,1.112 -1.66797,1.8067 0,0.5185 3.6e-4,1.3455 0.28907,1.7324 -3.43182,0.7775 -8.29525,1.9552 -9.17969,2.5742 -1.38957,0.9726 -0.41602,4.0293 -0.41602,4.0293 l 29.31836,0.5566 -0.41601,-6.3925 -0.15039,-0.014 c -0.0167,-3.6775 -0.0725,-10.0579 -0.26953,-11.2403 -0.19642,-1.1786 -0.0466,-5.6754 0.0586,-8.2597 l 1.19531,0.061 c 0,0 -0.69387,-4.7246 -1.38867,-4.7246 l -0.23633,0 c -0.22985,-2.9626 -1.00227,-13.101 -0.88281,-14.1758 0.13896,-1.2506 1.53156,-11.25286 1.39258,-13.61522 -0.13896,-2.36225 0.14453,-9.72656 0.14453,-9.72656 l 2.77344,-1.39258 -3.47657,-3.71093 -1.30078,0.55859 0.0703,-0.94531 c 0.17358,0.15943 0.3445,0.31713 0.52148,0.47656 l 1.64844,-2.11719 1.98828,0.0527 -2.6543,-1.47265 0.68945,-2.35938 -0.88476,-0.98242 2.94726,0.68945 -1.47461,-2.61328 c 0.23778,0.0794 0.79102,0.25781 0.79102,0.25781 l 1.96094,-4.91406 -0.002,0 -0.8789,-0.49023 c 0.0264,-0.0598 0.0479,-0.14439 0.0684,-0.23438 0.0499,-0.21772 0.0814,-0.51792 0.0898,-0.89062 7.3e-4,-0.0258 0.004,-0.0458 0.004,-0.0723 0.005,-0.37716 -0.0132,-0.82181 -0.0586,-1.31641 l 0,-0.002 c -0.0455,-0.49509 -0.11763,-1.04138 -0.22265,-1.62305 -0.4732,-2.61987 -1.59767,-5.96119 -3.79102,-8.60742 -0.34946,-1.12888 -0.83219,-2.11865 -1.49218,-2.875 -0.025,-0.0287 -0.0586,-0.0525 -0.0859,-0.0801 -0.0315,-0.0336 -0.0649,-0.064 -0.0977,-0.0937 -0.0411,-0.0362 -0.082,-0.0713 -0.12695,-0.10547 -0.008,-0.005 -0.0156,-0.0143 -0.0234,-0.0195 -0.0186,-0.0127 -0.0361,-0.0227 -0.0547,-0.0352 -0.0811,-0.0571 -0.16634,-0.1124 -0.25781,-0.16406 -1.99519,-1.22458 -3.63639,-0.95663 -5.12891,-0.9707 -0.28407,-0.008 -0.54321,-0.0112 -0.7539,-0.0117 -0.19166,-0.0218 -0.38805,-0.0344 -0.58594,-0.0449 -0.17511,-0.0123 -0.35158,-0.023 -0.53125,-0.0293 -0.43133,-0.27043 -1.36115,-0.76238 -2.50195,-0.77344 l -0.002,0 z M 70.511719,992.64146 c -3.68,0 -7.198594,0.61317 -10.558594,1.83984 -3.306667,1.22667 -6.240781,3.06814 -8.800781,5.5215 -2.506667,2.4533 -4.506667,5.4925 -6,9.1191 -1.493334,3.5734 -2.240235,7.7338 -2.240235,12.4805 0,4.7467 0.720157,8.9339 2.160157,12.5605 1.44,3.5734 3.413255,6.5858 5.919922,9.0391 2.506666,2.4 5.440781,4.2128 8.800781,5.4395 3.36,1.2266 6.932083,1.8398 10.71875,1.8398 3.893333,0 7.520859,-0.6132 10.880861,-1.8398 3.41333,-1.2267 6.34744,-3.0395 8.80078,-5.4395 2.45333,-2.4533 4.3731,-5.4657 5.75976,-9.0391 1.44,-3.6266 2.16016,-7.8138 2.16016,-12.5605 0,-4.7467 -0.72016,-8.9071 -2.16016,-12.4805 -1.43999,-3.6266 -3.41325,-6.6658 -5.91992,-9.1191 -2.50666,-2.45336 -5.44078,-4.29483 -8.80078,-5.5215 -3.359998,-1.22667 -6.934035,-1.83984 -10.720701,-1.83984 z m 55.845701,0 c -3.14666,0 -5.9738,0.40117 -8.48047,1.20117 -2.50666,0.74666 -4.64039,1.8393 -6.40039,3.2793 -1.76,1.44 -3.11812,3.20127 -4.07812,5.28127 -0.96,2.0266 -1.44141,4.3189 -1.44141,6.8789 0,2.56 0.45466,4.7472 1.36133,6.5605 0.90667,1.76 2.07953,3.2806 3.51953,4.5606 1.44,1.2266 3.06557,2.2658 4.87891,3.1191 1.81333,0.8 3.62807,1.5202 5.4414,2.1602 4.16,1.3866 7.09216,2.6932 8.79883,3.9199 1.70667,1.1733 2.56055,2.6671 2.56055,4.4805 0,0.8533 -0.13373,1.6269 -0.40039,2.3203 -0.26667,0.6933 -0.74612,1.3065 -1.43946,1.8398 -0.69333,0.48 -1.62744,0.8792 -2.80078,1.1992 -1.12,0.2667 -2.56031,0.4004 -4.32031,0.4004 -3.52,0 -6.50565,-0.3476 -8.95898,-1.041 -2.4,-0.7466 -4.42675,-1.5718 -6.08008,-2.4785 l -3.51953,9.9199 c 0.74666,0.4267 1.65208,0.8794 2.71875,1.3594 1.12,0.48 2.42659,0.9327 3.91992,1.3594 1.54667,0.4266 3.30792,0.7743 5.28125,1.041 1.97333,0.32 4.18534,0.4785 6.63867,0.4785 7.30667,0 12.77372,-1.4116 16.40039,-4.2383 3.62667,-2.88 5.44141,-6.9067 5.44141,-12.0801 0,-2.6666 -0.34768,-4.9341 -1.04102,-6.8007 -0.69333,-1.8667 -1.75922,-3.4942 -3.19922,-4.8809 -1.38666,-1.3867 -3.14791,-2.5863 -5.28125,-3.5996 -2.13333,-1.0667 -4.63953,-2.1326 -7.51953,-3.1992 -1.38666,-0.48 -2.66651,-0.9327 -3.83984,-1.3594 -1.12,-0.48 -2.13435,-0.9882 -3.04102,-1.5215 -0.85333,-0.5867 -1.52,-1.2266 -2,-1.9199 -0.48,-0.6933 -0.71875,-1.5453 -0.71875,-2.5586 0,-1.7067 0.63992,-2.9617 1.91992,-3.7617 1.33334,-0.8534 3.49381,-1.2793 6.48047,-1.2793 2.66667,0 4.93216,0.3209 6.79883,0.9609 1.92,0.5867 3.65451,1.2801 5.20117,2.0801 l 3.59961,-9.8418 c -1.76,-0.96 -4.0007,-1.83867 -6.7207,-2.63867 -2.72,-0.8 -5.94635,-1.20117 -9.67969,-1.20117 z m 46.5625,0 c -3.14666,0 -5.9738,0.40117 -8.48047,1.20117 -2.50666,0.74666 -4.64039,1.8393 -6.40039,3.2793 -1.76,1.44 -3.11812,3.20127 -4.07812,5.28127 -0.96,2.0266 -1.44141,4.3189 -1.44141,6.8789 0,2.56 0.45466,4.7472 1.36133,6.5605 0.90667,1.76 2.07953,3.2806 3.51953,4.5606 1.44,1.2266 3.06557,2.2658 4.87891,3.1191 1.81333,0.8 3.62807,1.5202 5.4414,2.1602 4.16,1.3866 7.09216,2.6932 8.79883,3.9199 1.70667,1.1733 2.56055,2.6671 2.56055,4.4805 0,0.8533 -0.13373,1.6269 -0.40039,2.3203 -0.26667,0.6933 -0.74612,1.3065 -1.43946,1.8398 -0.69333,0.48 -1.62744,0.8792 -2.80078,1.1992 -1.12,0.2667 -2.56031,0.4004 -4.32031,0.4004 -3.52,0 -6.50565,-0.3476 -8.95898,-1.041 -2.4,-0.7466 -4.42675,-1.5718 -6.08008,-2.4785 l -3.51953,9.9199 c 0.74666,0.4267 1.65208,0.8794 2.71875,1.3594 1.12,0.48 2.42659,0.9327 3.91992,1.3594 1.54667,0.4266 3.30792,0.7743 5.28125,1.041 1.97333,0.32 4.18534,0.4785 6.63867,0.4785 7.30667,0 12.77372,-1.4116 16.40039,-4.2383 3.62667,-2.88 5.44141,-6.9067 5.44141,-12.0801 0,-2.6666 -0.34768,-4.9341 -1.04102,-6.8007 -0.69333,-1.8667 -1.75922,-3.4942 -3.19922,-4.8809 -1.38666,-1.3867 -3.14791,-2.5863 -5.28125,-3.5996 -2.13333,-1.0667 -4.63953,-2.1326 -7.51953,-3.1992 -1.38666,-0.48 -2.66651,-0.9327 -3.83984,-1.3594 -1.12,-0.48 -2.13435,-0.9882 -3.04102,-1.5215 -0.85333,-0.5867 -1.52,-1.2266 -2,-1.9199 -0.48,-0.6933 -0.71875,-1.5453 -0.71875,-2.5586 0,-1.7067 0.63992,-2.9617 1.91992,-3.7617 1.33334,-0.8534 3.49381,-1.2793 6.48047,-1.2793 2.66667,0 4.93216,0.3209 6.79883,0.9609 1.92,0.5867 3.65451,1.2801 5.20117,2.0801 l 3.59961,-9.8418 c -1.76,-0.96 -4.0007,-1.83867 -6.7207,-2.63867 -2.72,-0.8 -5.94635,-1.20117 -9.67969,-1.20117 z m 79.875,0 c -4.05333,0 -7.81263,0.63992 -11.2793,1.91992 -3.46666,1.28 -6.45427,3.17496 -8.96093,5.68162 -2.50667,2.4534 -4.47992,5.4925 -5.91992,9.1192 -1.44,3.5733 -2.16016,7.6535 -2.16016,12.2402 0,9.2267 2.34768,16.346 7.04101,21.3594 4.74667,5.0133 11.62534,7.5195 20.63868,7.5195 4.21333,0 7.92109,-0.426 11.12109,-1.2793 3.2,-0.8533 5.67945,-1.8122 7.43945,-2.8789 l -3.43945,-10 c -0.69333,0.32 -1.46698,0.6657 -2.32031,1.0391 -0.85334,0.3733 -1.84094,0.721 -2.96094,1.041 -1.12,0.2666 -2.39984,0.5054 -3.83984,0.7187 -1.44,0.2134 -3.06558,0.3203 -4.87891,0.3203 -2.88,0 -5.33466,-0.4527 -7.36133,-1.3593 -2.02666,-0.96 -3.67898,-2.2399 -4.95898,-3.8399 -1.22667,-1.6 -2.13404,-3.4949 -2.7207,-5.6816 -0.53334,-2.24 -0.79883,-4.6392 -0.79883,-7.1992 0,-3.2 0.42596,-5.9202 1.27929,-8.1602 0.85334,-2.24 1.97271,-4.0528 3.35938,-5.4394 1.44,-1.44 3.06752,-2.4811 4.88086,-3.1211 1.86666,-0.64 3.75969,-0.959 5.67969,-0.959 2.88,0 5.43968,0.319 7.67968,0.959 2.29334,0.64 4.29334,1.4136 6,2.3203 l 3.59961,-10.08011 c -0.42666,-0.26666 -1.11812,-0.63914 -2.07812,-1.11914 -0.96,-0.48 -2.16157,-0.93466 -3.60156,-1.36133 -1.44001,-0.48 -3.11907,-0.87922 -5.03907,-1.19922 -1.92,-0.37333 -4.05372,-0.56054 -6.40039,-0.56054 z m 145.32031,0.64062 c -2.29333,0 -4.90651,0.10698 -7.83984,0.32031 -2.88,0.21334 -5.68039,0.58581 -8.40039,1.11915 l 0,54.64066 12.48047,0 0,-20.2403 6.16015,0 c 1.06667,1.28 2.13256,2.7203 3.19922,4.3203 1.06667,1.5467 2.13451,3.201 3.20118,4.961 1.12,1.76 2.18588,3.5728 3.19921,5.4394 1.06667,1.8667 2.10777,3.7062 3.1211,5.5196 l 14,0 c -0.96,-2.0267 -2.00109,-4.0802 -3.1211,-6.1602 -1.12,-2.1333 -2.29286,-4.1601 -3.51953,-6.0801 -1.17333,-1.9733 -2.37294,-3.8396 -3.59961,-5.5996 -1.22666,-1.8133 -2.39953,-3.4141 -3.51953,-4.8008 3.36,-1.3866 5.91969,-3.2797 7.67969,-5.6797 0.30086,-0.407 0.56742,-0.8404 0.81836,-1.2871 l -1.6875,-2.8925 -4.5,0.5 0.5,-6.5 -5.41992,-0.9043 c 0.0783,0.4676 0.1289,0.9565 0.1289,1.4843 0,2.8267 -1.01434,4.8267 -3.04101,6 -2.02667,1.1734 -5.38675,1.7598 -10.08008,1.7598 l -3.51953,0 0,-15.0391 c 0.64,-0.053 1.30667,-0.1068 2,-0.1601 0.74667,-0.053 1.5738,-0.08 2.48047,-0.08 0.10349,0 0.1986,0.01 0.30078,0.01 l -3.84961,-2.5664 6.5,-3 -2.67773,-5.05664 c -0.33477,-0.005 -0.65284,-0.0234 -0.99415,-0.0234 l 0,-0.004 z m 16.87891,0.20117 c -0.0801,-0.003 -0.15863,-10e-4 -0.23633,0.002 l -0.002,0 c -1.09052,0.0406 -2.06038,0.74019 -2.66211,0.91211 -0.68778,0.19651 -1.47944,0.10055 -1.9707,0.5918 -0.4913,0.49132 -0.5918,1.16992 -0.5918,1.16992 0,0 0.59237,1.08473 1.77148,1.28125 1.17908,0.1965 4.02505,0.0946 4.12305,-0.6914 0.0983,-0.78604 1.08791,-3.04567 -0.18945,-3.24219 -0.0798,-0.0123 -0.16179,-0.0204 -0.24219,-0.0234 z M 0,993.92271 l 0,55.43949 12.480469,0 0,-22.8809 21.919922,0 0,-10.4785 -21.919922,0 0,-11.5996 24.638672,0 0,-10.48049 -37.119141,0 z m 201.5625,0 0,55.43949 12.48047,0 0,-55.43949 -12.48047,0 z m 77.1875,0 0,55.43949 12.48047,0 0,-23.4395 c 1.92,1.4933 3.83976,3.2259 5.75976,5.1992 1.92,1.92 3.75954,3.9468 5.51954,6.0801 1.81333,2.08 3.4676,4.187 4.96093,6.3203 1.54667,2.08 2.88,4.0265 4,5.8399 l 14.79883,0 c -3.78667,-6.1334 -7.75992,-11.7341 -11.91992,-16.8008 -4.10667,-5.0667 -8.37216,-9.4392 -12.79883,-13.1192 4.21333,-4.2133 8.21333,-8.4005 12,-12.5605 3.84,-4.16 7.65279,-8.47898 11.43945,-12.95899 l -14.80078,0 c -2.82666,3.14666 -5.89255,6.58699 -9.19922,10.32029 -3.25333,3.68 -6.50643,7.2254 -9.75976,10.6387 l 0,-20.95899 -12.48047,0 z m 54.6875,0 0,55.43949 39.2793,0 0,-10.4805 -26.79883,0 0,-13.3594 22.16015,0 0,-10.2402 -22.16015,0 0,-10.8789 24.95898,0 0,-10.48049 -37.43945,0 z m 88.48242,2.63476 c -0.8843,0 -3.05273,1.18164 -3.05273,1.18164 -0.19652,1.27733 0.4928,2.45009 1.67187,2.94139 1.17907,0.4913 3.34321,0.5873 3.44141,-0.5918 0.0982,-1.17908 -1.17626,-3.53123 -2.06055,-3.53123 z m -351.408201,7.04493 c 2.293333,0 4.346823,0.426 6.160156,1.2793 1.866667,0.8533 3.413955,2.0797 4.640625,3.6797 1.28,1.5466 2.24086,3.4416 2.88086,5.6816 0.69333,2.1867 1.03906,4.6394 1.03906,7.3594 0,2.72 -0.34573,5.1727 -1.03906,7.3594 -0.64,2.1866 -1.60086,4.0797 -2.88086,5.6797 -1.22667,1.5466 -2.773958,2.7482 -4.640625,3.6015 -1.813333,0.8534 -3.866823,1.2793 -6.160156,1.2793 -2.346667,0 -4.424948,-0.4259 -6.238281,-1.2793 -1.813334,-0.8533 -3.360625,-2.0549 -4.640626,-3.6015 -1.226666,-1.6 -2.187526,-3.4931 -2.880859,-5.6797 -0.64,-2.1867 -0.958984,-4.6394 -0.958984,-7.3594 0,-2.6667 0.318984,-5.0926 0.958984,-7.2793 0.693333,-2.24 1.654193,-4.135 2.880859,-5.6816 1.280001,-1.6 2.827292,-2.8264 4.640626,-3.6797 1.813333,-0.9067 3.891614,-1.3594 6.238281,-1.3594 z"
           id="path6608"
           inkscape:connector-curvature="0" />
        <text
           xml:space="preserve"
           style="font-style:normal;font-weight:normal;font-size:40px;line-height:125%;font-family:sans-serif;letter-spacing:0px;word-spacing:0px;fill:#333333;fill-opacity:1;stroke:none;stroke-width:1px;stroke-linecap:butt;stroke-linejoin:miter;stroke-opacity:1;"
           x="44.46376"
           y="974.90997"
           id="text5118"
           sodipodi:linespacing="125%"><tspan
             sodipodi:role="line"
             id="tspan5120"
             x="44.46376"
             y="974.90997"
             style="font-style:italic;font-variant:normal;font-weight:normal;font-stretch:semi-condensed;font-size:25px;font-family:'DejaVu Serif';-inkscape-font-specification:'DejaVu Serif Italic Semi-Condensed';fill:#333333;fill-opacity:1;">Open Source Asset Prospector</tspan></text>
      </g>
    </g>
  </g>
</svg>
