/* XPM */
static char * fossicker_logo_xpm[] = {
"256 64 3 1",
" 	c None",
".	c #323331",
"+	c #363735",
"                                                                                                                                                                                                                                                                ",
"                                                                                                                                                                                                                                                                ",
"                                                                                                                                                                                                                                                                ",
"                                                                                                                                                                                                                                                                ",
"                                                                                                                                                                                                                                                                ",
"                                                                                                                                                                                                                                                                ",
"                                                                                                                                                                                                                                                                ",
"                                                                                                                                                                                                                                                                ",
"                                                                                                                                                                                                                                               .. +             ",
"                                                                                                                                                                                                                                             ........           ",
"                                                                                                                                                                                                                                          +...........          ",
"                                                                                                                                                                                                                                          ............          ",
"                                                                                                                                                                                                                                    ...  ..............         ",
"                                                                                                                                                                                                                                    ...................         ",
"                                    . .                             . ...                                         .                       .       .....                                                                     ..      ....................        ",
"                                   .   .                                                                         ..                       .        .   .                                       .                           ..       ....................        ",
"                                  .     .   . .     .   .   .       .   .   . .   .   . . . .   . .   + .       ...     . .   . .   . . . . .     .   ...   .   .     . .   . .     .     . +   .     .   .   .           ...       ....................        ",
"                                 .      .  . . .   . .   . ...     ...         . +    .  . . . . ..  .   .         .   . .   .  .  .     . .      .    . . . . . .   .  .  ... .   . .   .   . . .   . .   . .           ...        ....................        ",
"                                 ..     .  ..  .. .   .  .+ .       ...   +.   .  .   .   .   .   . ..  .       . ..  ..  . .   . ..  .   .       . . .   .   .   .  .  .  ..  .. .   . ..  .  .   ..  .. ..  +         ...         ....................        ",
"                                 .     .   .   . .   .   .             .   .   .  .      .    .        .       .   .   .     .    ..  .  .        .      .    .    . . .   .   .     .         .   .   .   .           ...         ... . ...............        ",
"                                +.     ..  .   ......   ..  .           . .   ..  .  ..  .    .     ... +     .......   ...   ... ...    .        .      .    .   .   ...  .+  ......   .     +.   .   .. .           ....        . +    ..............         ",
"                                 .     .   .   . .       .  .      .   .   .   . .   .   .    .     .              .           .  .      .       .       .   .   .         .   . .      .      .   .   .             ....                .............          ",
"                                  . . .   ... .   . .   .   .     ... ..  +.. .   . ...  .    .   + . . .     .   ... .   . . ..  . . .  ...    ...     .     . ... . ... ... .   . .   . . . ...  .. .   .         .....                 .............         ",
"                                   .       .       .                               .           .                       .                                       .           .       .           .                     .....                ............          ",
"                                          .                                                                                                                               .                                         .........             ............+         ",
"                                                                                                                                                                                                                    ..   .....            .............         ",
"                                                                                                                                                                                                                    .     .....           .............         ",
"                                                                                                                                                                                                                   ..        ... .         ...........          ",
"                                                                                                                                                                                                                   ..         ..... .      ............         ",
"                                                                                                                                                                                                                   .           .......     ...........          ",
"                                                                                                                                                                                                                   .            ......... +............         ",
"                                                                                                                                                                                                                   .             .....................          ",
"          . . . . . . . . . +           .........                   ...........             ........+           . . .               .........         . . .           . . . +   + . . . . . . . . .         ........    ..        .....................         ",
"          ...................          .............               .............           .............       ......            +..............     .......        ........     ...................     ......... +   ...             . .............          ",
"          ...................        ................             ...............       .................     .......           .................    .......       ........     ....................     ..........    ..   .              ...........          ",
"          ..................        ..................           ................       ................       ......          .................     .......       .......       ...................     .........         ...             ...........          ",
"          ...................     +.....................        .................      .................      .......         ...................    .......      .......       ....................    .........           .               ..........          ",
"          ...................     ......................       ......... . .....       ......... . .....       ......        ...................     .......     .......         ...................     ........                           ..........          ",
"          .......                 .........     .........      .......+       ..      .......         .       .......       .........       ....     .......    ........        .......                  ......                             ..........          ",
"          ......                 .......          ........     .......                ......                   ......       ........                 .......   .......           ......                  ......                             ..........          ",
"          .......               ........          +.......     .......                .......                 .......      ........                  .......  ........          .......                 .......         +                   ..........          ",
"          ......                .......            .......     .......                 .......                 ......      .......                   ....... ........            ......                  ......        ...                  ..........          ",
"          .......               .......             .......    .........              .........               .......     .......                    ...............            .......                  ......        ....                 ..........          ",
"          ......   .   .       .......               ......    ...........             ......... .             ......      ......                    ..............              ....... . . . . .       ......        ...                   .........          ",
"          .................    +......              .......     .............          .............+         .......     .......                    .............              ..................      .......       .......               ..........          ",
"          .................    .......               ......      .............          ..............         ......      ......                    ............                .................       ......... ..........               ..........          ",
"          .................    .......              .......       ..............         ..............       .......     .......                    .............              ..................       ...................+               ...........         ",
"          .................    .......               ......        .............           .............       ......     ......                     ..............              .................       ...................                 ..........         ",
"          .................     ......              .......           ............          .............     .......     .......                    ................           ..................      ...................                 ...........         ",
"          ......               .......              .......              .........             ...........     ......      ......                    ................            ......                  ................                    .........          ",
"          .......               .......             .......               .........               ........    .......     +......                    ....... .........          .......                  ........ ........                   .........+         ",
"          ......                .......            .......                 +.......                .......     ......      .......                   .......   ........          ......                  ......    .......                   .........          ",
"          .......               ........           ........                 .......                .......    .......      ........                  .......   .........        .......                 .......     .......                  ..........         ",
"          ......                 .......           .......                  ......                 .......     ......      ........                  .......    ........         ......                  ......     ........                 .........          ",
"          .......                ........       .........       . .         .......    ..         ........    .......       .........         ..     .......     ........       .......                  ......      ........               ...........         ",
"          ......                  .......... . .........       ..... . . +........     ..... . . .........     ......        ........... . .....     .......      ........       ....... ... ... ...     ......      ........                .........          ",
"          .......                 ......................+      ...................    ...................     .......       .....................    .......      .........     .....................   .......       ........              ...........         ",
"          ......                   ....................        ...................     ..................      ......         ...................    .......       ........      ...................     ......        .......             ...........          ",
"          .......                   ..................        ...................     ..................      .......         ...................    .......        ........    .....................    ......        ........         ...............         ",
"          ......                       .............           .................       ...............         ......            ...............     .......         .......     ...................     ......         .......         ..............          ",
"          ......+                       ...........               ...........           .............         .......             +............      ......           .......   +....................   +......         .......         ...............         ",
"                                                                                                                                                                                                                                                                ",
"                                                                                                                                                                                                                                                                ",
"                                                                                                                                                                                                                                                                "};
