/* XPM */
static char * fossicker_icon_xpm[] = {
"24 24 4 1",
" 	c None",
".	c #333333",
"+	c #323232",
"@	c #343434",
"                 ...+   ",
"                ......  ",
"             @........  ",
"         ..  .......... ",
"        ..   .......... ",
"       ..   ..@.......  ",
"      ...       ......  ",
"      .....     ......  ",
"      .  ...@   ......  ",
"      .    .... ......  ",
"     .+     ..........  ",
" +.... @..   +........  ",
" .....    .      .....  ",
" ....            ....@  ",
" ...+   .        ....+  ",
" ...+   .        .....  ",
" .........@      .....  ",
" .........       .....  ",
" ........        .....  ",
" ...@.....       .....  ",
" ...+ ....       .....  ",
" ...+  ....      .....  ",
" ...+   ...    .......  ",
" +..    ...+   .......  "};
